# xmcd CD database file
# Copyright (C) 1993-1998 Ti Kan
# 
# Track frame offsets:
#     182
#     21717
#     43280
#     67255
# 
# Disc length: 1248 seconds
# 
# Revision: 1
# Processed by: cddbd v1.4b41PL1 Copyright (c) Steve Scherf et al.
# Submitted via: DiscPlay 4.0.4
# 
DISCID=3f04de04
DTITLE=Brandy - BrokenHearted
DYEAR=1900
DGENRE=
TTITLE0=Soulpower Mix
TTITLE1=Soulpower Groove Mix
TTITLE2=Acoustic Mix
TTITLE3=LP Version
EXTD=
EXTT0=
EXTT1=
EXTT2=
EXTT3=
PLAYORDER=
